<svg width="33" height="40" viewBox="0 0 33 28" fill="none" xmlns="http://www.w3.org/2000/svg">
    <path
        d="M25.7884 14.5801C25.7884 10.0725 22.0816 6.41692 17.5108 6.41692C12.94 6.41692 9.23926 10.0725 9.23926 14.5801C9.23926 16.8761 9.94387 19.0332 11.4879 20.5136V27.2271C11.4879 27.5898 11.862 27.8319 12.1929 27.6832L17.5108 25.2931L22.8287 27.6832C23.1596 27.8319 23.5337 27.5898 23.5337 27.2271V20.5136C25.09 19.0272 25.7884 16.8761 25.7884 14.574V14.5801Z"
        fill="#76E2C8" />
    <path
        d="M24.5629 12.7674C24.5629 7.93354 20.5742 4 15.6787 4C10.7832 4 6.78833 7.93354 6.78833 12.7674C6.78833 15.0091 7.65224 17.0514 9.06147 18.6042C9.05534 18.6405 9.04309 18.6707 9.04309 18.7069V26.1934C9.04309 26.3988 9.14725 26.5921 9.32493 26.7009C9.42296 26.7613 9.53938 26.7976 9.65579 26.7976C9.74157 26.7976 9.82735 26.7795 9.91313 26.7432L15.6787 24.1511L21.4442 26.7432C21.5239 26.7795 21.6097 26.7976 21.7016 26.7976C21.818 26.7976 21.9344 26.7674 22.0324 26.7009C22.2101 26.5921 22.3143 26.3988 22.3143 26.1934V18.7069C22.3143 18.6707 22.302 18.6405 22.2959 18.6042C23.7051 17.0514 24.569 15.0091 24.569 12.7674H24.5629ZM15.6787 5.20846C19.9064 5.20846 23.3375 8.59819 23.3375 12.7674C23.3375 16.9366 19.9002 20.3263 15.6787 20.3263C11.4571 20.3263 8.01374 16.9305 8.01374 12.7674C8.01374 8.60423 11.451 5.20846 15.6787 5.20846ZM15.936 22.9305C15.936 22.9305 15.9238 22.9305 15.9176 22.9305C15.8748 22.9124 15.8319 22.9063 15.7828 22.9003C15.7461 22.9003 15.7155 22.8822 15.6848 22.8822C15.6481 22.8822 15.6113 22.8943 15.5807 22.9003C15.5378 22.9063 15.4949 22.9124 15.452 22.9305C15.4459 22.9305 15.4397 22.9305 15.4336 22.9305L10.2808 25.2508V19.7039C11.7819 20.8459 13.6506 21.5287 15.6909 21.5287C17.7313 21.5287 19.6 20.8399 21.1011 19.7039V25.2508L15.9483 22.9305H15.936Z"
        fill="#142F54" />
    <path
        d="M12.5479 14.006L12.2905 15.4864C12.1986 16.0121 12.4131 16.5317 12.8481 16.8399C13.2831 17.1541 13.8529 17.1964 14.3309 16.9486L15.6788 16.2477L17.0268 16.9486C17.2351 17.0574 17.4618 17.1118 17.6824 17.1118C17.9703 17.1118 18.2583 17.0211 18.5095 16.8459C18.9445 16.5317 19.159 16.0121 19.0671 15.4924L18.8097 14.006L19.9004 12.9547C20.2864 12.5861 20.4212 12.0423 20.2557 11.5347C20.0903 11.0272 19.6553 10.6707 19.1222 10.5921L17.615 10.3746L16.941 9.02719C16.702 8.54985 16.218 8.25378 15.6788 8.25378C15.1396 8.25378 14.6556 8.54985 14.4166 9.02719L13.7427 10.3746L12.2354 10.5921C11.7024 10.6707 11.2673 11.0332 11.1019 11.5347C10.9365 12.0423 11.0713 12.5861 11.4573 12.9547L12.5479 14.006ZM12.266 11.9094C12.2844 11.861 12.3212 11.8006 12.4131 11.7885L14.239 11.5287C14.4411 11.4985 14.6127 11.3776 14.6985 11.1964L15.5134 9.56495C15.5563 9.48036 15.6237 9.46828 15.6727 9.46828C15.7217 9.46828 15.7952 9.48641 15.832 9.56495L16.6469 11.1964C16.7388 11.3776 16.9103 11.4985 17.1064 11.5287L18.9384 11.7885C19.0303 11.8006 19.0671 11.861 19.0855 11.9094C19.1038 11.9577 19.1038 12.0302 19.0426 12.0906L17.7191 13.3656C17.5721 13.5045 17.5108 13.7039 17.5414 13.8973L17.8539 15.6918C17.8723 15.7825 17.8233 15.8369 17.7804 15.8671C17.7375 15.8973 17.6762 15.9215 17.5905 15.8792L15.9545 15.0332C15.7768 14.9426 15.5624 14.9426 15.3847 15.0332L13.7488 15.8792C13.663 15.9215 13.6017 15.8973 13.5588 15.8671C13.516 15.8369 13.4731 15.7825 13.4853 15.6918L13.7978 13.8973C13.8346 13.7039 13.7672 13.4985 13.6201 13.3595L12.2967 12.0846C12.2293 12.0242 12.2354 11.9517 12.2538 11.9033L12.266 11.9094Z"
        fill="#142F54" />
</svg>