<svg width="33" height="40" viewBox="0 0 33 28" fill="none" xmlns="http://www.w3.org/2000/svg">
    <g clip-path="url(#clip0_126_1631)">
        <path
            d="M9.83022 25.0693H27.2497C27.7733 25.0693 28.1992 24.6434 28.1992 24.1198V7.31471C28.1992 6.79108 27.7733 6.3652 27.2497 6.3652H8.7271C8.18253 6.3652 7.74268 6.80505 7.74268 7.34962V25.7186C7.74268 25.949 8.03591 26.0677 8.17554 25.8861C8.55954 25.3904 9.15997 25.0693 9.83022 25.0693Z"
            fill="#F8C171" />
        <path fillRule="evenodd" clipRule="evenodd"
            d="M25.3646 29H7.73566C5.8855 29 4.37744 27.4919 4.37744 25.6418V6.16971C4.37744 4.42427 5.80172 3 7.54715 3H25.3646C25.7486 3 26.0627 3.31418 26.0627 3.69817V22.9748C26.0627 23.3588 25.7486 23.6729 25.3646 23.6729H24.0799V27.5967H25.3646C25.7486 27.5967 26.0627 27.9108 26.0627 28.2948C26.0627 28.6788 25.7486 28.993 25.3646 28.993V29ZM7.73566 23.6729H22.6835V27.5967H7.73566C6.65349 27.5967 5.77379 26.717 5.77379 25.6348C5.77379 24.5526 6.65349 23.6729 7.73566 23.6729ZM7.54715 4.39635C6.56971 4.39635 5.77379 5.19227 5.77379 6.16971V22.9119C6.32535 22.514 7.00258 22.2766 7.73566 22.2766H24.6664V4.39635H7.54715ZM13.7761 18.3808C13.8878 18.4436 13.9995 18.4715 14.1182 18.4715L14.1112 18.4785C14.2438 18.4785 14.3695 18.4436 14.4812 18.3738L20.1853 14.8201C20.3878 14.6944 20.5134 14.471 20.5134 14.2266C20.5134 13.9823 20.3878 13.7588 20.1853 13.6332L14.4812 10.0795C14.2718 9.94682 13.9925 9.94682 13.7761 10.0655C13.5596 10.1842 13.42 10.4216 13.42 10.6729V17.7734C13.42 18.0247 13.5526 18.2551 13.7761 18.3808ZM14.8163 16.5166V11.9296V11.9227L18.5027 14.2196L14.8163 16.5166Z"
            fill="#142F54" />
    </g>
    <defs>
        <clipPath id="clip0_126_1631">
            <rect width="23.8217" height="26" fill="white" transform="translate(4.37744 3)" />
        </clipPath>
    </defs>
</svg>