<svg width="33" height="40" viewBox="0 0 33 28" fill="none" xmlns="http://www.w3.org/2000/svg">
    <g clip-path="url(#clip0_126_1622)">
        <path
            d="M27.9703 6.55789H8.14627C7.41828 6.55789 6.82812 7.14737 6.82812 7.87453V27.676C6.82812 28.4031 7.41828 28.9926 8.14627 28.9926H27.9703C28.6982 28.9926 29.2884 28.4031 29.2884 27.676V7.87453C29.2884 7.14737 28.6982 6.55789 27.9703 6.55789Z"
            fill="#E6C1F9" />
        <path
            d="M12.6634 13.1041H4.02886C3.62157 13.1041 3.28833 12.7713 3.28833 12.3644V6.20284C3.28833 4.43499 4.72496 3 6.49482 3H12.6634C13.0707 3 13.404 3.33286 13.404 3.73969V12.3644C13.404 12.7713 13.0707 13.1041 12.6634 13.1041ZM4.76939 11.6248H11.9229V4.47937H6.49482C5.54695 4.47937 4.76939 5.24865 4.76939 6.20284V11.6248Z"
            fill="#142F54" />
        <path
            d="M25.8077 13.1041H17.1731C16.7659 13.1041 16.4326 12.7713 16.4326 12.3644V3.73969C16.4326 3.33286 16.7659 3 17.1731 3H23.3418C25.1116 3 26.5483 4.43499 26.5483 6.20284V12.3644C26.5483 12.7713 26.215 13.1041 25.8077 13.1041ZM17.9137 11.6248H25.0672V6.20284C25.0672 5.25605 24.297 4.47937 23.3418 4.47937H17.9137V11.6248Z"
            fill="#142F54" />
        <path
            d="M12.6634 26.2632H6.49482C4.72496 26.2632 3.28833 24.8282 3.28833 23.0603V16.8987C3.28833 16.4919 3.62157 16.159 4.02886 16.159H12.6634C13.0707 16.159 13.404 16.4919 13.404 16.8987V25.5235C13.404 25.9303 13.0707 26.2632 12.6634 26.2632ZM4.76939 17.6384V23.0603C4.76939 24.0071 5.53954 24.7838 6.49482 24.7838H11.9229V17.6384H4.76939Z"
            fill="#142F54" />
        <path
            d="M23.3418 26.2632H17.1731C16.7659 26.2632 16.4326 25.9303 16.4326 25.5235V16.8987C16.4326 16.4919 16.7659 16.159 17.1731 16.159H25.8077C26.215 16.159 26.5483 16.4919 26.5483 16.8987V23.0603C26.5483 24.8282 25.1116 26.2632 23.3418 26.2632ZM17.9137 24.7838H23.3418C24.2896 24.7838 25.0672 24.0145 25.0672 23.0603V17.6384H17.9137V24.7838Z"
            fill="#142F54" />
    </g>
    <defs>
        <clipPath id="clip0_126_1622">
            <rect width="26" height="26" fill="white" transform="translate(3.28833 3)" />
        </clipPath>
    </defs>
</svg>