<svg width="inherit" height="inherit" viewBox="0 0 200 66" fill="none" xmlns="http://www.w3.org/2000/svg">
    <path
        d="M16.7509 30.7816C16.457 28.4922 17.0192 26.6926 18.1586 26.2901C20.9421 25.3104 23.6255 31.2842 24.9629 31.6782C26.5091 32.1339 30.7258 27.5232 31.9951 30.8966C33.4305 34.7129 29.0242 39.2385 26.7795 41.2276C27.8444 40.6036 30.0763 39.5303 34.2036 38.3994C34.4442 38.08 34.6849 37.7435 34.9192 37.3814C38.3181 32.1978 37.6984 27.3634 34.9681 25.9366C32.24 24.5097 27.1352 30.1427 25.5741 29.8892C24.0131 29.6358 22.6714 22.3417 18.3418 21.8284C13.5479 21.2598 10.5557 26.1729 10.4002 30.2917C10.347 31.7186 10.511 33.1327 10.8666 34.4595C12.8685 33.4117 15.3219 32.0125 16.7488 30.7816H16.7509Z"
        fill="#61D2DC" />
    <path
        d="M20.5165 18.2718C20.6827 19.8627 19.5135 20.9787 17.9247 21.1469C16.3339 21.313 14.8942 20.6784 14.7281 19.0875C14.562 17.4966 15.3862 15.6268 16.9387 15.2392C19.6583 14.5577 20.3526 16.6831 20.5187 18.2718H20.5165Z"
        fill="#1E55AD" />
    <path
        d="M35.5647 23.2382C35.6797 24.3392 34.8704 24.9654 33.7715 25.0825C32.6705 25.1975 31.6759 24.7055 31.5609 23.6066C31.4459 22.5056 32.4618 21.511 33.5628 21.396C34.6639 21.281 35.4497 22.1393 35.5668 23.2403L35.5647 23.2382Z"
        fill="#E95C51" />
    <path
        d="M17.0277 30.5345C16.9681 29.8509 16.9787 29.2077 17.0511 28.6349C17.2833 27.0781 17.8263 26.3582 18.659 26.2773C19.7835 26.1666 20.761 27.0781 20.761 27.0781C20.761 27.0781 20.1562 25.4829 18.6463 25.4041C15.2303 25.2253 14.9342 29.1481 15.062 32.0381C15.8351 31.527 16.5208 31.0158 17.0298 30.5367L17.0277 30.5345Z"
        fill="#E95C51" />
    <path
        d="M26.575 41.1829C26.6261 41.2106 26.675 41.2362 26.724 41.2617C27.6866 40.691 29.6651 39.7156 33.2706 38.6635C34.131 36.5338 34.3483 33.991 33.8627 32.3639C32.8447 28.9671 30.0612 29.6827 30.0612 29.6827C30.8854 29.557 31.5903 29.819 31.9971 30.8966C33.3857 34.5894 29.0262 39.049 26.5771 41.1829H26.575Z"
        fill="#1E55AD" />
    <path
        d="M15.4627 31.7632C15.4456 31.776 15.4265 31.7887 15.4094 31.8015C15.4286 31.7887 15.4456 31.776 15.4627 31.7632Z"
        fill="#4FB9B9" />
    <path
        d="M16.1843 31.2393C16.1843 31.2393 16.2056 31.2244 16.2141 31.2158C16.2035 31.2244 16.1928 31.2307 16.1843 31.2393Z"
        fill="#4FB9B9" />
    <path
        d="M31.9973 28.0513C30.1125 27.5062 26.6859 31.101 25.2973 30.5601C22.4755 29.4633 20.4736 22.6654 16.866 23.9027C13.0602 25.2082 13.6012 29.4974 14.5595 32.3597C14.7299 32.2511 14.896 32.1425 15.06 32.0338C14.9343 29.1439 15.2304 25.221 18.6442 25.3999C20.1542 25.4787 20.759 27.0738 20.759 27.0738C20.759 27.0738 20.6632 26.9844 20.4949 26.8651C22.3669 28.275 24.0068 31.3949 24.963 31.6782C26.015 31.9891 28.3044 29.9531 30.0593 29.6848C30.0593 29.6848 32.8428 28.9692 33.8608 32.3639C33.9694 32.7239 34.0652 33.3841 34.0972 33.7738C34.7723 31.5653 33.8799 28.5944 31.9952 28.0492L31.9973 28.0513Z"
        fill="#4FB9B9" />
    <path
        d="M0.211778 43.3147L12.3296 37.7158L27.8762 43.6576C27.8762 43.6576 15.3367 38.3738 14.2932 35.0537L2.876 40.2224C2.876 40.2224 2.66516 39.3876 2.82276 38.9233L17.2641 32.136C18.3098 38.2929 30.8621 43.1954 30.8621 43.1954C30.8621 43.1954 35.1874 37.7392 41.7937 36.8064C42.1664 36.7532 42.5412 36.8724 42.818 37.128C42.818 37.128 38.5843 39.2981 37.594 40.5014C39.7343 39.888 42.9884 38.7891 44.4515 38.2887C44.5346 38.261 44.5857 38.3781 44.509 38.4207L34.2397 44.1793L46.3938 39.8284C46.4768 39.8007 46.5301 39.9051 46.4513 39.9413L32.8789 46.3516C32.8789 46.3516 32.6914 46.9735 30.2828 47.7295C27.872 48.4855 18.5291 50.6386 18.5291 50.6386C18.5291 50.6386 15.1046 51.8164 14.2761 49.0904C14.2761 49.0904 8.03407 46.2664 6.16209 45.7084C4.2901 45.1505 0.241593 43.9429 0.241593 43.9429C-0.0650799 43.8301 -0.084247 43.4531 0.209648 43.3168L0.211778 43.3147Z"
        fill="#1E55AD" />
    <path
        d="M55.0716 26.7633C54.9758 26.7463 54.8651 26.7271 54.7394 26.7058C54.3901 26.6505 53.9685 26.6207 53.4786 26.6207C52.9888 26.6207 52.4606 26.6931 51.9389 26.8358C51.4171 26.9784 50.9379 27.2191 50.4992 27.5556C50.0605 27.8921 49.7112 28.3457 49.4493 28.9164C49.1873 29.4872 49.0553 30.2006 49.0553 31.0546V32.1791L47.8435 32.456C47.6369 32.5028 47.49 32.6881 47.49 32.9011V33.9212C47.49 34.1725 47.6944 34.3769 47.9457 34.3769H49.0553V43.4281C49.0553 43.6794 49.2598 43.8838 49.5111 43.8838H51.826C52.0773 43.8838 52.2818 43.6794 52.2818 43.4281V34.3769H54.5051C54.7564 34.3769 54.9609 34.1725 54.9609 33.9212V32.637C54.9609 32.3857 54.7564 32.1812 54.5051 32.1812H52.2818V30.9631C52.2818 30.2496 52.4266 29.7279 52.7183 29.3978C53.008 29.0677 53.3828 28.9037 53.8364 28.9037C54.2432 28.9037 54.5712 28.9271 54.8246 28.9718C54.8501 28.9761 54.8778 28.9825 54.9034 28.9867C55.1845 29.0421 55.4465 28.827 55.4465 28.5395V27.2106C55.4465 26.9912 55.291 26.8017 55.0759 26.7633H55.0716Z"
        fill="#031D44" />
    <path
        d="M63.4833 32.3685C62.7869 32.1172 61.8989 31.9894 60.8213 31.9894C60.1632 31.9894 59.5072 32.0618 58.8577 32.2045C58.206 32.3472 57.6289 32.5154 57.1241 32.7029C56.8302 32.8136 56.5811 32.9158 56.3766 33.0095C56.1637 33.1075 56.0636 33.3503 56.1381 33.5718L56.5406 34.7452C56.6237 34.988 56.892 35.1158 57.1327 35.0221C57.3243 34.9454 57.5394 34.873 57.7737 34.8048C58.2018 34.6792 58.6532 34.577 59.1345 34.5003C59.6137 34.4236 60.0759 34.3853 60.5167 34.3853C61.1045 34.3853 61.556 34.479 61.8712 34.6643C62.1864 34.8496 62.344 35.2414 62.344 35.8356V36.696C61.8754 36.696 61.3686 36.7173 60.8255 36.7599C60.2824 36.8025 59.7394 36.8749 59.1963 36.9814C58.6532 37.0857 58.1549 37.2327 57.6992 37.4222C57.0347 37.7097 56.5065 38.108 56.1189 38.6191C55.7292 39.1302 55.5354 39.7436 55.5354 40.457C55.5354 41.1704 55.6909 41.7987 56.0039 42.3375C56.3149 42.8763 56.7514 43.2959 57.3115 43.5983C57.8717 43.8986 58.5233 44.0498 59.2666 44.0498C60.0098 44.0498 60.6658 43.9262 61.2152 43.6813C61.7647 43.4364 62.197 43.1745 62.5122 42.8933V43.4258C62.5122 43.6771 62.7167 43.8815 62.968 43.8815H65.0934C65.3447 43.8815 65.5491 43.6771 65.5491 43.4258V36.1487C65.5491 35.0838 65.3788 34.2511 65.0401 33.6484C64.6994 33.0457 64.1819 32.6198 63.4855 32.3664L63.4833 32.3685ZM62.344 41.3302C62.2737 41.4154 62.1417 41.5027 61.9457 41.5985C61.7498 41.6922 61.524 41.7753 61.2685 41.8456C61.0129 41.9158 60.7552 41.9499 60.4975 41.9499C59.9992 41.9499 59.5946 41.8157 59.2794 41.5453C58.9642 41.2748 58.8066 40.8574 58.8066 40.2888C58.8066 39.8543 58.9131 39.5327 59.126 39.3219C59.339 39.111 59.5839 38.9428 59.8565 38.8172C60.0524 38.732 60.2952 38.6574 60.587 38.5914C60.8766 38.5254 61.1812 38.4743 61.4964 38.4381C61.8115 38.404 62.0948 38.3848 62.3482 38.3848V41.3259L62.344 41.3302Z"
        fill="#031D44" />
    <path
        d="M77.3199 32.179H74.9304C74.7302 32.179 74.5535 32.309 74.496 32.5006L72.8412 37.8823L72.1171 40.8064L71.327 37.8823L69.6105 32.4942C69.5509 32.3047 69.3741 32.1769 69.176 32.1769H66.7333C66.4138 32.1769 66.1945 32.4964 66.3074 32.7945L70.4581 43.7496C70.5262 43.9285 70.6988 44.0477 70.8904 44.0477H73.2245C73.4183 44.0477 73.5908 43.9285 73.6569 43.7474L77.748 32.7924C77.8587 32.4942 77.6394 32.1769 77.322 32.1769L77.3199 32.179Z"
        fill="#031D44" />
    <path
        d="M86.8949 32.8926C86.0749 32.3176 84.9803 32.0301 83.6067 32.0301C82.5077 32.0301 81.5238 32.2516 80.6592 32.6924C79.7945 33.1332 79.1109 33.7807 78.6104 34.6368C78.11 35.4908 77.848 36.5407 77.8267 37.7887C77.8203 38.6299 77.914 39.4264 78.11 40.1782C78.3059 40.9321 78.6232 41.5987 79.0598 42.1801C79.4985 42.7615 80.0735 43.2194 80.7891 43.5516C81.5025 43.8838 82.3714 44.05 83.3937 44.05C84.5075 44.05 85.4957 43.8306 86.3561 43.3876C87.2165 42.9468 87.8958 42.2972 88.3942 41.439C88.8904 40.5807 89.1459 39.5265 89.1609 38.2721C89.1821 37.1583 89.0139 36.1276 88.6561 35.1777C88.2983 34.2279 87.7105 33.4676 86.8906 32.8926H86.8949ZM85.2976 40.8767C84.9185 41.5071 84.3137 41.8181 83.481 41.8117C82.9145 41.8117 82.4609 41.6328 82.1201 41.275C81.7794 40.9172 81.5324 40.4402 81.379 39.8417C81.2257 39.2433 81.149 38.5852 81.149 37.8718C81.149 36.7026 81.3386 35.8081 81.7155 35.1884C82.0946 34.5686 82.7037 34.262 83.5428 34.2684C84.1029 34.2748 84.5522 34.4536 84.893 34.805C85.2316 35.1543 85.4786 35.6207 85.6341 36.2021C85.7874 36.7835 85.8662 37.4267 85.8662 38.1359C85.8662 39.3327 85.6767 40.2464 85.2997 40.8767H85.2976Z"
        fill="#031D44" />
    <path
        d="M97.441 32.0427H97.4367C97.2578 32.0214 97.064 32.0108 96.8532 32.0108C96.3421 32.0108 95.8544 32.1066 95.3922 32.3004C94.9301 32.4942 94.5318 32.7413 94.1953 33.0458C93.91 33.3056 93.7055 33.5761 93.5713 33.8572L93.4478 32.6007C93.4244 32.3664 93.2285 32.1897 92.9942 32.1897H91.0903C90.839 32.1897 90.6345 32.3941 90.6345 32.6454V43.428C90.6345 43.6793 90.839 43.8837 91.0903 43.8837H93.3839C93.6352 43.8837 93.8397 43.6793 93.8397 43.428V36.0593C93.9504 35.9507 94.0803 35.8378 94.2337 35.7143C94.4828 35.5141 94.7895 35.3437 95.1537 35.1989C95.5179 35.0562 95.9523 34.9838 96.4571 34.9838C96.8702 34.9838 97.1684 34.9945 97.3728 35.0562C97.6199 35.167 97.8946 34.9625 97.8584 34.6942L97.8349 32.4942C97.8349 32.2685 97.671 32.0704 97.4473 32.0427H97.441Z"
        fill="#031D44" />
    <path d="M97.3789 35.0606C97.3917 35.0648 97.4087 35.0691 97.3789 35.0606V35.0606Z" fill="#031D44" />
    <path
        d="M199.546 32.4942C199.546 32.2685 199.382 32.0704 199.158 32.0427C199.158 32.0427 199.154 32.0427 199.152 32.0427C198.973 32.0214 198.779 32.0108 198.569 32.0108C198.057 32.0108 197.57 32.1066 197.108 32.3004C196.645 32.4942 196.245 32.7413 195.911 33.0458C195.625 33.3056 195.419 33.5761 195.287 33.8572L195.163 32.6007C195.14 32.3664 194.944 32.1897 194.71 32.1897H192.806C192.554 32.1897 192.35 32.3941 192.35 32.6454V43.428C192.35 43.6793 192.554 43.8837 192.806 43.8837H195.099C195.351 43.8837 195.555 43.6793 195.555 43.428V36.0593C195.666 35.9507 195.796 35.8378 195.949 35.7143C196.198 35.5141 196.505 35.3437 196.869 35.1989C197.233 35.0562 197.668 34.9838 198.172 34.9838C198.586 34.9838 198.884 34.9945 199.088 35.0562C199.335 35.167 199.61 34.9625 199.574 34.6942L199.55 32.4942H199.546Z"
        fill="#031D44" />
    <path d="M199.094 35.0606C199.107 35.0648 199.124 35.0691 199.094 35.0606V35.0606Z" fill="#031D44" />
    <path
        d="M99.6833 32.1899H101.977C102.228 32.1899 102.433 32.3943 102.433 32.6456V43.4282C102.433 43.6795 102.228 43.8839 101.977 43.8839H99.6833C99.432 43.8839 99.2275 43.6795 99.2275 43.4282V32.6456C99.2275 32.3943 99.432 32.1899 99.6833 32.1899Z"
        fill="#031D44" />
    <path
        d="M100.866 26.8315C100.508 26.8315 100.173 26.9188 99.8626 27.0935C99.5516 27.2681 99.2982 27.5024 99.1065 27.792C98.9127 28.0838 98.8169 28.4032 98.8169 28.7525C98.8169 29.27 98.9958 29.6917 99.3536 30.0133C99.7114 30.3348 100.148 30.4967 100.668 30.4967C101.221 30.4967 101.698 30.3093 102.101 29.9345C102.503 29.5596 102.706 29.106 102.706 28.5736C102.706 28.0412 102.544 27.6429 102.218 27.3171C101.892 26.9913 101.443 26.8294 100.868 26.8294L100.866 26.8315Z"
        fill="#031D44" />
    <path
        d="M111.823 41.6859C111.761 41.4239 111.488 41.2749 111.233 41.3601C111.22 41.3643 111.207 41.3686 111.194 41.3728C110.977 41.4431 110.749 41.5006 110.511 41.5453C110.272 41.5901 110.064 41.6135 109.88 41.6135C109.523 41.6135 109.25 41.5666 109.06 41.4708C108.871 41.3771 108.739 41.1599 108.662 40.8191C108.586 40.4784 108.547 39.9374 108.547 39.1963V34.3747H111.233C111.484 34.3747 111.688 34.1703 111.688 33.919V32.6348C111.688 32.3835 111.484 32.179 111.233 32.179H108.547V29.9663C108.547 29.715 108.343 29.5105 108.091 29.5105H106.931C106.741 29.5105 106.571 29.6298 106.505 29.8066C106.445 29.9642 106.388 30.1218 106.332 30.2772C106.241 30.5285 106.156 30.7649 106.075 30.98C105.994 31.1972 105.919 31.3868 105.849 31.5465C105.708 31.8766 105.483 32.1066 105.172 32.2408C104.927 32.3451 104.62 32.4538 104.249 32.5666C104.058 32.6241 103.926 32.803 103.926 33.0011V33.9168C103.926 34.1681 104.13 34.3726 104.382 34.3726H105.344V40.5508C105.344 41.392 105.457 42.0671 105.685 42.5782C105.913 43.0893 106.26 43.462 106.724 43.6963C107.188 43.9306 107.78 44.0477 108.494 44.0477C108.999 44.0477 109.493 43.9923 109.976 43.8795C110.46 43.7666 110.89 43.626 111.269 43.4535C111.505 43.347 111.705 43.2406 111.867 43.1341C112.025 43.0318 112.093 42.838 112.05 42.6549L111.823 41.6838V41.6859Z"
        fill="#031D44" />
    <path
        d="M121.615 33.0458C121.18 32.6859 120.686 32.4239 120.133 32.2621C119.579 32.1002 118.997 32.0236 118.388 32.03C117.183 32.0363 116.165 32.3026 115.332 32.8222C114.5 33.344 113.863 34.0531 113.426 34.9497C112.987 35.8463 112.77 36.8622 112.77 37.9973C112.77 39.8885 113.249 41.3686 114.21 42.4419C115.168 43.5132 116.548 44.0498 118.35 44.0498C118.953 44.0498 119.538 43.9966 120.109 43.888C120.68 43.7794 121.191 43.6367 121.642 43.4578C121.947 43.3385 122.207 43.2107 122.422 43.0766C122.597 42.968 122.671 42.755 122.611 42.5569L122.32 41.6092C122.245 41.3643 121.983 41.2238 121.74 41.3047C121.625 41.343 121.496 41.3814 121.353 41.4197C120.995 41.5134 120.618 41.5901 120.218 41.6454C119.817 41.7008 119.451 41.7306 119.115 41.7306C118.499 41.7306 117.956 41.6305 117.492 41.4303C117.025 41.2301 116.659 40.9022 116.389 40.4422C116.139 40.0162 115.997 39.454 115.954 38.7661H122.554C122.784 38.7661 122.982 38.5957 123.005 38.3657C123.023 38.2018 123.035 38.025 123.042 37.8312C123.057 37.467 123.063 37.0709 123.063 36.645C123.057 35.791 122.92 35.0669 122.658 34.4748C122.396 33.8828 122.047 33.4079 121.613 33.0458H121.615ZM120.081 37.0326H115.99C116.033 36.6109 116.099 36.2446 116.191 35.9358C116.382 35.2884 116.659 34.8305 117.021 34.5643C117.381 34.2981 117.803 34.166 118.286 34.166C118.77 34.166 119.168 34.2874 119.443 34.5281C119.715 34.7708 119.9 35.1052 119.994 35.5375C120.088 35.9677 120.118 36.4682 120.084 37.0347L120.081 37.0326Z"
        fill="#031D44" />
    <path
        d="M134.636 41.7178C134.569 41.4367 134.28 41.2812 134.005 41.3707C134.005 41.3707 134.001 41.3707 133.999 41.3707C133.782 41.441 133.554 41.4985 133.315 41.5432C133.077 41.5879 132.868 41.6113 132.685 41.6113C132.327 41.6113 132.054 41.5645 131.865 41.4687C131.675 41.3749 131.543 41.1577 131.467 40.817C131.39 40.4762 131.352 39.9353 131.352 39.1942V34.3726H134.007C134.276 34.3726 134.493 34.1554 134.493 33.887V32.6603C134.493 32.392 134.276 32.1748 134.007 32.1748H131.352V29.9918C131.352 29.7235 131.134 29.5063 130.866 29.5063H129.418C129.32 29.7661 129.224 30.0217 129.135 30.273C129.043 30.5243 128.958 30.7606 128.877 30.9757C128.796 31.193 128.721 31.3825 128.651 31.5422C128.511 31.8723 128.285 32.1023 127.974 32.2365C127.735 32.3387 127.435 32.4452 127.073 32.556C126.869 32.6177 126.728 32.8073 126.728 33.0202V33.8849C126.728 34.1532 126.945 34.3704 127.214 34.3704H128.146V40.5486C128.146 41.3899 128.259 42.065 128.487 42.5761C128.715 43.0872 129.062 43.4599 129.526 43.6942C129.991 43.9284 130.583 44.0456 131.296 44.0456C131.801 44.0456 132.295 43.9902 132.778 43.8773C133.262 43.7644 133.692 43.6239 134.071 43.4514C134.299 43.347 134.493 43.2448 134.653 43.1426C134.821 43.034 134.895 42.8274 134.851 42.6315L134.636 41.7114V41.7178Z"
        fill="#031D44" />
    <path
        d="M144.421 33.0458C143.987 32.6859 143.493 32.4239 142.939 32.2621C142.385 32.1002 141.804 32.0236 141.195 32.03C139.99 32.0363 138.972 32.3026 138.139 32.8222C137.306 33.344 136.669 34.0531 136.233 34.9497C135.794 35.8463 135.577 36.8622 135.577 37.9973C135.577 39.8885 136.056 41.3686 137.017 42.4419C137.975 43.5132 139.355 44.0498 141.157 44.0498C141.759 44.0498 142.345 43.9966 142.916 43.888C143.487 43.7794 143.998 43.6367 144.449 43.4578C144.743 43.3407 144.996 43.2193 145.209 43.0894C145.397 42.9765 145.476 42.7465 145.412 42.5378L145.135 41.6348C145.056 41.3771 144.783 41.2301 144.528 41.3132C144.417 41.3494 144.296 41.3856 144.162 41.4197C143.804 41.5134 143.427 41.5901 143.027 41.6454C142.628 41.7008 142.26 41.7306 141.923 41.7306C141.308 41.7306 140.765 41.6305 140.301 41.4303C139.834 41.2301 139.468 40.9022 139.197 40.4422C138.948 40.0162 138.805 39.454 138.763 38.7661H145.337C145.582 38.7661 145.795 38.583 145.819 38.338C145.833 38.1826 145.846 38.0122 145.853 37.8291C145.867 37.4649 145.874 37.0688 145.874 36.6428C145.867 35.7888 145.731 35.0647 145.469 34.4727C145.207 33.8806 144.858 33.4057 144.424 33.0437L144.421 33.0458ZM142.888 37.0326H138.797C138.84 36.6109 138.906 36.2446 138.997 35.9358C139.189 35.2884 139.466 34.8305 139.828 34.5643C140.188 34.2981 140.609 34.166 141.093 34.166C141.576 34.166 141.974 34.2874 142.249 34.5281C142.522 34.7708 142.707 35.1052 142.801 35.5375C142.894 35.9677 142.924 36.4682 142.89 37.0347L142.888 37.0326Z"
        fill="#031D44" />
    <path
        d="M154.848 32.3685C154.152 32.1172 153.264 31.9894 152.186 31.9894C151.528 31.9894 150.872 32.0618 150.222 32.2045C149.571 32.3472 148.994 32.5154 148.489 32.7029C148.206 32.8093 147.965 32.9073 147.765 32.9989C147.539 33.1032 147.43 33.3609 147.511 33.5973L147.897 34.7175C147.986 34.9774 148.272 35.1115 148.527 35.0136C148.713 34.9411 148.917 34.873 149.141 34.807C149.569 34.6813 150.02 34.5791 150.501 34.5024C150.981 34.4258 151.443 34.3874 151.884 34.3874C152.471 34.3874 152.923 34.4811 153.238 34.6664C153.553 34.8517 153.711 35.2436 153.711 35.8377V36.6981C153.242 36.6981 152.736 36.7194 152.192 36.762C151.649 36.8046 151.106 36.877 150.563 36.9835C150.02 37.0879 149.522 37.2348 149.066 37.4243C148.402 37.7119 147.873 38.1101 147.486 38.6212C147.096 39.1323 146.902 39.7457 146.902 40.4591C146.902 41.1726 147.058 41.8008 147.371 42.3396C147.682 42.8784 148.118 43.298 148.678 43.6004C149.239 43.9007 149.89 44.0519 150.634 44.0519C151.377 44.0519 152.033 43.9284 152.582 43.6835C153.132 43.4385 153.564 43.1766 153.879 42.8955V43.3981C153.879 43.6664 154.096 43.8837 154.365 43.8837H156.431C156.699 43.8837 156.916 43.6664 156.916 43.3981V36.1508C156.916 35.086 156.746 34.2533 156.407 33.6506C156.066 33.0479 155.549 32.6219 154.852 32.3685H154.848ZM153.709 41.3302C153.638 41.4154 153.506 41.5027 153.311 41.5985C153.115 41.6922 152.889 41.7753 152.633 41.8456C152.378 41.9158 152.12 41.9499 151.862 41.9499C151.364 41.9499 150.959 41.8157 150.644 41.5453C150.329 41.2748 150.171 40.8574 150.171 40.2888C150.171 39.8543 150.278 39.5327 150.491 39.3219C150.704 39.111 150.949 38.9428 151.221 38.8172C151.417 38.732 151.66 38.6574 151.952 38.5914C152.241 38.5254 152.546 38.4743 152.861 38.4381C153.176 38.404 153.46 38.3848 153.713 38.3848V41.3259L153.709 41.3302Z"
        fill="#031D44" />
    <path
        d="M167.035 41.6093C166.969 41.3346 166.685 41.1728 166.417 41.2601C166.249 41.3155 166.057 41.3708 165.842 41.4219C165.386 41.5348 164.892 41.5902 164.36 41.5902C163.827 41.5902 163.318 41.4581 162.873 41.1962C162.428 40.9342 162.079 40.5232 161.823 39.9674C161.568 39.4094 161.451 38.6938 161.472 37.8185C161.493 37.0071 161.649 36.3576 161.938 35.8763C162.23 35.3928 162.592 35.0457 163.031 34.837C163.467 34.6261 163.915 34.5218 164.37 34.5218C164.945 34.5218 165.427 34.5708 165.814 34.6687C165.97 34.7071 166.115 34.7518 166.249 34.8008C166.534 34.9051 166.841 34.7135 166.89 34.4132L167.126 32.965C167.165 32.7329 167.03 32.5093 166.809 32.4283C166.615 32.358 166.368 32.2878 166.066 32.2196C165.51 32.094 164.85 32.0301 164.085 32.0301C162.76 32.0301 161.67 32.3027 160.812 32.8436C159.953 33.3867 159.315 34.1193 158.895 35.0457C158.475 35.97 158.265 37.0071 158.265 38.155C158.265 39.3029 158.467 40.2804 158.874 41.1706C159.28 42.0608 159.885 42.7615 160.69 43.2769C161.495 43.7923 162.505 44.05 163.717 44.05C164.466 44.05 165.18 43.9648 165.855 43.7923C166.379 43.6602 166.8 43.4771 167.122 43.2449C167.28 43.1299 167.35 42.9297 167.303 42.7402L167.03 41.6115L167.035 41.6093Z"
        fill="#031D44" />
    <path
        d="M175.527 32.0108C175.01 32.0171 174.505 32.0981 174.015 32.2514C173.526 32.4047 173.074 32.5943 172.665 32.8179C172.32 33.0074 172.033 33.1949 171.794 33.3823L171.935 31.3782V27.7663C171.935 27.3872 171.492 27.1807 171.202 27.4256L168.889 29.3763C168.789 29.4615 168.732 29.5851 168.732 29.7171V43.3939C168.732 43.6622 168.949 43.8794 169.217 43.8794H171.451C171.72 43.8794 171.937 43.6622 171.937 43.3939V35.4523C172.301 35.1435 172.697 34.9241 173.123 34.79C173.551 34.6579 173.911 34.5877 174.205 34.5791C174.863 34.5578 175.325 34.7218 175.591 35.0732C175.858 35.4246 175.992 36.0614 175.992 36.9857V43.3917C175.992 43.6601 176.209 43.8773 176.477 43.8773H178.733C179.001 43.8773 179.218 43.6601 179.218 43.3917V36.6172C179.218 34.9923 178.922 33.8082 178.33 33.0671C177.738 32.3259 176.805 31.9703 175.53 32.0065L175.527 32.0108Z"
        fill="#031D44" />
    <path
        d="M189.69 33.0458C189.256 32.6859 188.762 32.4239 188.208 32.2621C187.654 32.1002 187.073 32.0236 186.464 32.03C185.258 32.0363 184.24 32.3026 183.408 32.8222C182.575 33.344 181.938 34.0531 181.502 34.9497C181.063 35.8463 180.846 36.8622 180.846 37.9973C180.846 39.8885 181.325 41.3686 182.285 42.4419C183.244 43.5132 184.624 44.0498 186.425 44.0498C187.028 44.0498 187.614 43.9966 188.185 43.888C188.755 43.7794 189.266 43.6367 189.718 43.4578C190.012 43.3407 190.265 43.2193 190.478 43.0894C190.666 42.9765 190.744 42.7465 190.681 42.5378L190.404 41.6348C190.325 41.3771 190.052 41.2301 189.797 41.3132C189.686 41.3494 189.565 41.3856 189.43 41.4197C189.073 41.5134 188.696 41.5901 188.295 41.6454C187.897 41.7008 187.529 41.7306 187.192 41.7306C186.577 41.7306 186.034 41.6305 185.569 41.4303C185.103 41.2301 184.737 40.9022 184.466 40.4422C184.217 40.0162 184.074 39.454 184.032 38.7661H191.026C191.075 38.5063 191.106 38.1954 191.119 37.8312C191.134 37.467 191.141 37.0709 191.141 36.645C191.134 35.791 190.998 35.0669 190.736 34.4748C190.474 33.8828 190.125 33.4079 189.69 33.0458ZM188.157 37.0326H184.066C184.108 36.6109 184.174 36.2446 184.266 35.9358C184.458 35.2884 184.734 34.8305 185.097 34.5643C185.456 34.2981 185.878 34.166 186.362 34.166C186.845 34.166 187.243 34.2874 187.518 34.5281C187.791 34.7708 187.976 35.1052 188.07 35.5375C188.163 35.9677 188.193 36.4682 188.159 37.0347L188.157 37.0326Z"
        fill="#031D44" />
    <path
        d="M66.4178 26.3118C66.4583 26.0264 66.4988 25.7453 66.535 25.4705C66.5733 25.1958 66.6052 24.9594 66.6351 24.7592C66.6521 24.6229 66.667 24.5122 66.6777 24.4227C66.6883 24.3354 66.6947 24.2779 66.699 24.2524C66.8502 23.9776 67.0248 23.7583 67.2229 23.5985C67.4209 23.4388 67.6083 23.36 67.7851 23.36C67.9363 23.36 68.047 23.3984 68.1173 23.475C68.1897 23.5517 68.2217 23.6859 68.2132 23.8754C68.2089 24.0266 68.1919 24.2332 68.1599 24.4951C68.128 24.7571 68.0918 25.0382 68.0534 25.3364C68.0364 25.4727 68.0172 25.6175 67.9981 25.7687C67.9789 25.922 67.9576 26.0817 67.9363 26.2521C67.915 26.4225 67.8916 26.6014 67.866 26.7867C67.8405 26.972 67.8149 27.1679 67.7851 27.3723C67.7808 27.4043 67.7766 27.4362 67.7723 27.4682C67.7318 27.7535 67.9555 28.0112 68.2451 28.0112H69.1566C69.393 28.0112 69.5953 27.8366 69.6294 27.6002C69.6741 27.2893 69.7167 26.9805 69.7593 26.6695C69.8211 26.2223 69.8828 25.7793 69.9467 25.3342C70.0191 24.821 70.0702 24.4163 70.1022 24.1139C70.1341 23.8115 70.1512 23.6177 70.1512 23.5283C70.1512 22.9618 70.0319 22.5571 69.7912 22.3144C69.5506 22.0716 69.2013 21.9481 68.7434 21.9481C68.3345 21.9481 67.9619 22.0545 67.6211 22.2654C67.2804 22.4762 66.9886 22.768 66.7458 23.1407C66.699 22.7147 66.5584 22.4102 66.322 22.2249C66.0856 22.0396 65.764 21.9481 65.3594 21.9481C64.9548 21.9481 64.5927 22.0481 64.2605 22.2462C63.9283 22.4443 63.6365 22.7254 63.3831 23.0874L63.4214 22.5337C63.4406 22.259 63.2233 22.0247 62.9465 22.0247H62.069C61.8305 22.0247 61.6303 22.2015 61.5963 22.4357L60.9084 27.4682C60.87 27.7535 61.0915 28.0091 61.3812 28.0091H62.2905C62.5291 28.0091 62.7292 27.8345 62.7612 27.5981L63.2191 24.3013C63.2979 24.1608 63.3852 24.033 63.4789 23.918C63.5726 23.8009 63.6748 23.7029 63.7792 23.6198C63.8857 23.5368 63.99 23.4729 64.0944 23.426C64.1987 23.3792 64.2967 23.3558 64.3904 23.3558C64.5416 23.3558 64.6523 23.3941 64.7226 23.4708C64.795 23.5474 64.827 23.6816 64.8185 23.8711C64.8142 24.0011 64.7993 24.1863 64.7737 24.427C64.7482 24.6698 64.712 24.9701 64.6694 25.3321C64.6481 25.5067 64.6247 25.6963 64.5991 25.8965C64.5735 26.0967 64.5459 26.3096 64.516 26.5332C64.4862 26.7569 64.4522 26.9911 64.4159 27.236C64.4053 27.3106 64.3946 27.3851 64.384 27.4596C64.3414 27.7472 64.565 28.007 64.8547 28.007H66.1729C66.1772 27.9899 66.19 27.8984 66.2155 27.7322C66.2411 27.5683 66.2709 27.3596 66.305 27.1083C66.339 26.857 66.3774 26.5886 66.4178 26.3011V26.3118Z"
        fill="#031D44" />
    <path
        d="M69.9894 29.926C69.8978 30.1752 70.0277 30.4456 70.2747 30.5393C70.3386 30.5628 70.4025 30.5862 70.4707 30.6075C70.7007 30.682 70.9456 30.7203 71.2033 30.7203C71.6122 30.7203 71.9593 30.6543 72.2447 30.5223C72.5301 30.3903 72.7707 30.2199 72.9645 30.0112C73.2478 29.6917 73.5331 29.3233 73.8249 28.9037C74.1145 28.4842 74.3893 28.0476 74.647 27.5919C74.9046 27.1382 75.1261 26.6974 75.3072 26.2693C75.5712 25.6496 75.7693 25.0533 75.8971 24.4825C76.027 23.9118 76.0909 23.3602 76.0909 22.8299C76.0909 22.6148 76.0887 22.4402 76.0824 22.306C76.076 22.1718 76.0696 22.0781 76.0589 22.0249H74.8578C74.5958 22.0249 74.3829 22.2357 74.3807 22.4955V22.4998C74.3807 22.6297 74.3722 22.7554 74.3616 22.8725C74.3403 23.2558 74.3126 23.5966 74.2785 23.8926C74.2444 24.1908 74.1933 24.4804 74.1273 24.7658C74.0613 25.0512 73.9676 25.3642 73.8441 25.7092C73.7546 25.9925 73.6588 26.2651 73.5566 26.5292C73.4543 26.7932 73.3457 27.0467 73.2307 27.2894L73.0476 25.624L72.7068 22.4487C72.6813 22.2059 72.4768 22.0228 72.234 22.0228H71.3651C71.0755 22.0228 70.8519 22.2804 70.8945 22.568L71.4162 26.1501L71.6569 27.775C71.6867 27.9709 71.855 28.1158 72.053 28.1158H72.7941C72.6515 28.3372 72.4875 28.5438 72.3022 28.7334C72.1169 28.9229 71.9316 29.0741 71.7399 29.1891C71.5504 29.3041 71.3758 29.3616 71.2139 29.3616C71.0819 29.3616 70.9285 29.3318 70.7582 29.27H70.7497C70.4962 29.1785 70.2151 29.3105 70.1214 29.5618L69.9894 29.9196V29.926Z"
        fill="#031D44" />
</svg>