<svg width="33" height="40" viewBox="0 0 33 28" fill="none" xmlns="http://www.w3.org/2000/svg">
    <g clip-path="url(#clip0_126_1640)">
        <path
            d="M17.395 21.4685C19.1783 21.4685 20.624 20.0461 20.624 18.2914C20.624 16.5368 19.1783 15.1144 17.395 15.1144C15.6117 15.1144 14.166 16.5368 14.166 18.2914C14.166 20.0461 15.6117 21.4685 17.395 21.4685Z"
            fill="#81DBE3" />
        <path
            d="M19.3213 10.8417C20.8299 10.8417 22.053 9.63834 22.053 8.15396C22.053 6.66958 20.8299 5.46626 19.3213 5.46626C17.8126 5.46626 16.5896 6.66958 16.5896 8.15396C16.5896 9.63834 17.8126 10.8417 19.3213 10.8417Z"
            fill="#81DBE3" />
        <path
            d="M9.74633 28.5185C11.255 28.5185 12.478 27.3152 12.478 25.8308C12.478 24.3464 11.255 23.1431 9.74633 23.1431C8.23766 23.1431 7.01465 24.3464 7.01465 25.8308C7.01465 27.3152 8.23766 28.5185 9.74633 28.5185Z"
            fill="#81DBE3" />
        <path
            d="M26.5566 23.15C28.0653 23.15 29.2883 21.9467 29.2883 20.4623C29.2883 18.9779 28.0653 17.7746 26.5566 17.7746C25.048 17.7746 23.825 18.9779 23.825 20.4623C23.825 21.9467 25.048 23.15 26.5566 23.15Z"
            fill="#81DBE3" />
        <path
            d="M7.81305 17.4576C9.03159 17.4576 10.0194 16.4856 10.0194 15.2867C10.0194 14.0878 9.03159 13.1159 7.81305 13.1159C6.59451 13.1159 5.60669 14.0878 5.60669 15.2867C5.60669 16.4856 6.59451 17.4576 7.81305 17.4576Z"
            fill="#81DBE3" />
        <path
            d="M19.0621 27.5813C19.9286 27.5813 20.6311 26.8901 20.6311 26.0376C20.6311 25.185 19.9286 24.4939 19.0621 24.4939C18.1956 24.4939 17.4932 25.185 17.4932 26.0376C17.4932 26.8901 18.1956 27.5813 19.0621 27.5813Z"
            fill="#81DBE3" />
        <path
            d="M24.9387 15.7898C23.5658 15.7898 22.3891 16.5892 21.8427 17.7401L19.7064 17.2301C19.7064 17.1543 19.7204 17.0716 19.7204 16.9958C19.7204 15.4383 18.7749 14.0945 17.423 13.4811L17.8293 10.2283C19.6644 10.1663 21.1423 8.68461 21.1423 6.86524C21.1423 5.04587 19.6014 3.48148 17.7102 3.48148C15.819 3.48148 14.2781 4.99763 14.2781 6.85835C14.2781 8.27801 15.1746 9.49092 16.4424 9.98711L16.0502 13.1366C15.9661 13.1366 15.8751 13.1228 15.791 13.1228C14.3271 13.1228 13.0523 13.9153 12.3729 15.0869L9.0879 14.2461C9.0949 14.1634 9.11592 14.0807 9.11592 13.9911C9.11592 12.4129 7.81311 11.1311 6.20913 11.1311C4.60514 11.1311 3.28833 12.4129 3.28833 13.9911C3.28833 15.5693 4.59113 16.8511 6.19512 16.8511C7.21074 16.8511 8.1073 16.3342 8.62561 15.5555L11.8966 16.3894C11.8686 16.5823 11.8476 16.7822 11.8476 16.9889C11.8476 17.8159 12.1138 18.574 12.562 19.208L9.92842 21.6683C9.40309 21.3513 8.79372 21.1583 8.13531 21.1583C6.24415 21.1583 4.7032 22.6745 4.7032 24.5352C4.7032 26.3959 6.24415 27.9121 8.13531 27.9121C10.0265 27.9121 11.5674 26.3959 11.5674 24.5352C11.5674 23.8254 11.3363 23.1638 10.958 22.6193L13.5707 20.1797C14.201 20.607 14.9715 20.862 15.798 20.862C15.8751 20.862 15.9451 20.8551 16.0222 20.8482L16.4144 22.771C15.693 23.1431 15.1957 23.8805 15.1957 24.7419C15.1957 25.9755 16.2113 26.9748 17.4651 26.9748C18.7188 26.9748 19.7344 25.9755 19.7344 24.7419C19.7344 23.6186 18.8869 22.702 17.7943 22.5435L17.388 20.5312C18.2776 20.1453 18.992 19.4423 19.3912 18.574L21.5346 19.084C21.5346 19.084 21.5276 19.1391 21.5276 19.1667C21.5276 21.0274 23.0685 22.5435 24.9597 22.5435C26.8508 22.5435 28.3918 21.0274 28.3918 19.1667C28.3918 17.306 26.8508 15.7898 24.9597 15.7898H24.9387ZM15.679 6.85835C15.679 5.7557 16.5895 4.86669 17.7032 4.86669C18.8169 4.86669 19.7274 5.76259 19.7274 6.85835C19.7274 7.95411 18.8169 8.85001 17.7032 8.85001C16.5895 8.85001 15.679 7.95411 15.679 6.85835ZM6.19512 15.4728C5.36861 15.4728 4.68919 14.8112 4.68919 13.9911C4.68919 13.171 5.36161 12.5094 6.19512 12.5094C7.02863 12.5094 7.70105 13.171 7.70105 13.9911C7.70105 14.8112 7.02863 15.4728 6.19512 15.4728ZM18.3126 24.7488C18.3126 25.2175 17.9203 25.6034 17.444 25.6034C16.9677 25.6034 16.5755 25.2175 16.5755 24.7488C16.5755 24.2802 16.9677 23.8943 17.444 23.8943C17.9203 23.8943 18.3126 24.2802 18.3126 24.7488ZM8.12831 26.5406C7.00762 26.5406 6.10406 25.6447 6.10406 24.549C6.10406 23.4532 7.01462 22.5573 8.12831 22.5573C9.24199 22.5573 10.1526 23.4532 10.1526 24.549C10.1526 25.6447 9.24199 26.5406 8.12831 26.5406ZM15.784 19.4906C14.3902 19.4906 13.2555 18.3741 13.2555 17.0027C13.2555 15.6313 14.3902 14.5149 15.784 14.5149C17.1779 14.5149 18.3126 15.6313 18.3126 17.0027C18.3126 18.3741 17.1779 19.4906 15.784 19.4906ZM24.9387 21.1652C23.818 21.1652 22.9144 20.2693 22.9144 19.1736C22.9144 18.0778 23.825 17.1819 24.9387 17.1819C26.0523 17.1819 26.9629 18.0778 26.9629 19.1736C26.9629 20.2693 26.0523 21.1652 24.9387 21.1652Z"
            fill="#142F54" />
    </g>
    <defs>
        <clipPath id="clip0_126_1640">
            <rect width="26" height="25.037" fill="white" transform="translate(3.28833 3.48148)" />
        </clipPath>
    </defs>
</svg>