<svg width="12" height="10" viewBox="0 0 12 10" fill="none" xmlns="http://www.w3.org/2000/svg">
    <path
        d="M9.87395 1.50002C10.5826 2.48514 11 3.69384 11 5.00002C11 6.30621 10.5826 7.51491 9.87395 8.50003M7.87266 3.00002C8.26809 3.56694 8.5 4.2564 8.5 5.00002C8.5 5.74365 8.26809 6.43311 7.87266 7.00003M4.81716 1.68287L3.23431 3.26571C3.14784 3.35219 3.1046 3.39542 3.05414 3.42634C3.00941 3.45376 2.96063 3.47396 2.90962 3.48621C2.85207 3.50002 2.79092 3.50002 2.66863 3.50002H1.8C1.51997 3.50002 1.37996 3.50002 1.273 3.55452C1.17892 3.60246 1.10243 3.67895 1.0545 3.77303C1 3.87999 1 4.02 1 4.30002V5.70003C1 5.98005 1 6.12006 1.0545 6.22702C1.10243 6.3211 1.17892 6.39759 1.273 6.44553C1.37996 6.50003 1.51997 6.50003 1.8 6.50003H2.66863C2.79092 6.50003 2.85207 6.50003 2.90962 6.51384C2.96063 6.52609 3.00941 6.54629 3.05414 6.57371C3.1046 6.60463 3.14784 6.64786 3.23431 6.73434L4.81716 8.31718C5.03135 8.53137 5.13844 8.63847 5.23039 8.6457C5.31016 8.65198 5.38813 8.61969 5.4401 8.55883C5.5 8.4887 5.5 8.33725 5.5 8.03434V1.96571C5.5 1.6628 5.5 1.51135 5.4401 1.44122C5.38813 1.38036 5.31016 1.34807 5.23039 1.35435C5.13844 1.36158 5.03135 1.46868 4.81716 1.68287Z"
        stroke="#465F82" strokeLinecap="round" strokeLinejoin="round" />
</svg>